HIERARCHY
ROOT Hips
{
	OFFSET 0.000000 0.000000 0.000000
	CHANNELS 6 Xposition Yposition Zposition Zrotation Yrotation Xrotation 
	JOINT LowerBack
	{
		OFFSET 0.000000 0.000000 0.000000
		CHANNELS 3 Zrotation Yrotation Xrotation
		JOINT Spine
		{
			OFFSET 0.028270 2.035590 -0.193380
			CHANNELS 3 Zrotation Yrotation Xrotation
			JOINT Spine1
			{
				OFFSET 0.056720 2.048850 -0.042750
				CHANNELS 3 Zrotation Yrotation Xrotation
				JOINT Neck
				{
					OFFSET 0.000000 0.000000 0.000000
					CHANNELS 3 Zrotation Yrotation Xrotation
					JOINT Neck1
					{
						OFFSET -0.054170 1.746240 0.172020
						CHANNELS 3 Zrotation Yrotation Xrotation
						JOINT Head
						{
							OFFSET 0.104070 1.761360 -0.123970
							CHANNELS 3 Zrotation Yrotation Xrotation
							End Site
							{
								OFFSET 0.000000 0.000000 0.000000
							}
						}
					}
				}
				JOINT LeftShoulder
				{
					OFFSET 0.000000 0.000000 0.000000
					CHANNELS 3 Zrotation Yrotation Xrotation
					JOINT LeftArm
					{
						OFFSET 3.362410 1.200890 -0.311210
						CHANNELS 3 Zrotation Yrotation Xrotation
						JOINT LeftForeArm
						{
							OFFSET 4.983000 -0.000000 -0.000000
							CHANNELS 3 Zrotation Yrotation Xrotation
							JOINT LeftHand
							{
								OFFSET 3.483560 -0.000000 -0.000000
								CHANNELS 3 Zrotation Yrotation Xrotation
								JOINT LeftFingerBase
								{
									OFFSET 0.000000 0.000000 0.000000
									CHANNELS 3 Zrotation Yrotation Xrotation
									JOINT LeftHandIndex1
									{
										OFFSET 0.715260 -0.000000 -0.000000
										CHANNELS 3 Zrotation Yrotation Xrotation
										End Site
										{
											OFFSET 0.000000 0.000000 0.000000
										}
									}
								}
								JOINT LThumb
								{
									OFFSET 0.000000 0.000000 0.000000
									CHANNELS 3 Zrotation Yrotation Xrotation
									End Site
									{
										OFFSET 0.000000 0.000000 0.000000
									}
								}
							}
						}
					}
				}
				JOINT RightShoulder
				{
					OFFSET 0.000000 0.000000 0.000000
					CHANNELS 3 Zrotation Yrotation Xrotation
					JOINT RightArm
					{
						OFFSET -3.136600 1.374050 -0.404650
						CHANNELS 3 Zrotation Yrotation Xrotation
						JOINT RightForeArm
						{
							OFFSET -5.241900 -0.000000 -0.000000
							CHANNELS 3 Zrotation Yrotation Xrotation
							JOINT RightHand
							{
								OFFSET -3.444170 -0.000000 -0.000000
								CHANNELS 3 Zrotation Yrotation Xrotation
								JOINT RightFingerBase
								{
									OFFSET 0.000000 0.000000 0.000000
									CHANNELS 3 Zrotation Yrotation Xrotation
									JOINT RightHandIndex1
									{
										OFFSET -0.622530 -0.000000 -0.000000
										CHANNELS 3 Zrotation Yrotation Xrotation
										End Site
										{
											OFFSET 0.000000 0.000000 0.000000
										}
									}
								}
								JOINT RThumb
								{
									OFFSET 0.000000 0.000000 0.000000
									CHANNELS 3 Zrotation Yrotation Xrotation
									End Site
									{
										OFFSET 0.000000 0.000000 0.000000
									}
								}
							}
						}
					}
				}
			}
		}
	}
}
}
MOTION
Frames: 9
Frame Time: 0.008333
2.265261 17.456837 2.912032 -42.564203 -27.171884 49.087808 18.485137 -0.694252 -10.287063 3.087658 -3.117700 -4.841750 -7.726620 -3.110214 -0.213091 21.656987 -15.096857 -5.117458 -2.073380 -0.182303 0.491234 0.000000 0.000000 0.000000 3.187043 -3.278407 -0.968530 -84.194570 -12.769736 -0.673467 -0.949607 -44.138842 -0.069988 17.738421 -6.191904 -1.020379 -0.152015 0.291153 -0.000000 0.000000 0.000000 0.000000 0.000000 0.000000 0.000000 16.650044 -13.236122 0.264034 35.504965 7.752544 -19.062672 0.105778 85.091310 -0.035932 -11.208352 9.116190 -0.947711 0.198907 -0.358751 -0.000000 0.000000 0.000000 0.000000 0.000000 0.000000 0.000000 
2.249859 17.447814 2.921318 -42.879867 -27.655828 49.151400 18.428065 -0.682606 -10.142804 3.062136 -3.074129 -4.816429 -7.731663 -3.060328 -0.209651 21.578610 -14.965965 -5.112858 -2.078628 -0.182820 0.495362 0.000000 0.000000 0.000000 3.064493 -2.986903 -0.932588 -83.860103 -12.331267 -0.799658 -0.957846 -44.394595 -0.069432 17.785271 -6.219551 -1.027073 -0.151281 0.288610 -0.000000 0.000000 0.000000 0.000000 0.000000 0.000000 0.000000 16.574308 -13.040352 0.205539 35.416360 8.197457 -19.201322 0.087394 85.494316 -0.037879 -11.329037 9.192471 -0.966323 0.198527 -0.366032 -0.000000 0.000000 0.000000 0.000000 0.000000 0.000000 0.000000 
2.233776 17.439020 2.928762 -43.164276 -28.117306 49.177117 18.350779 -0.684640 -9.973709 3.033309 -3.042188 -4.783970 -7.740933 -3.023169 -0.204479 21.516063 -14.843376 -5.122098 -2.082218 -0.183029 0.495406 0.000000 0.000000 0.000000 2.942942 -2.677205 -0.889865 -83.504480 -11.964727 -0.969146 -0.966276 -44.562365 -0.069011 17.882067 -6.270762 -1.040369 -0.150780 0.286025 -0.000000 0.000000 0.000000 0.000000 0.000000 0.000000 0.000000 16.507234 -12.854542 0.141900 35.379264 8.612913 -19.327692 0.068318 85.954951 -0.039914 -11.460554 9.270345 -0.986133 0.198304 -0.373426 -0.000000 0.000000 0.000000 0.000000 0.000000 0.000000 0.000000 
2.217423 17.430939 2.935166 -43.410622 -28.550959 49.186514 18.256980 -0.693128 -9.805932 3.002080 -3.017628 -4.749363 -7.753327 -2.994313 -0.195145 21.469429 -14.735357 -5.145466 -2.083443 -0.182891 0.491322 0.000000 0.000000 0.000000 2.820430 -2.354168 -0.841930 -83.140908 -11.674549 -1.177753 -0.975349 -44.623333 -0.068669 18.026854 -6.339039 -1.059369 -0.150472 0.283195 -0.000000 0.000000 0.000000 0.000000 0.000000 0.000000 0.000000 16.445794 -12.684347 0.074711 35.389692 8.985791 -19.446142 0.048901 86.471489 -0.042005 -11.601695 9.345915 -1.006842 0.198350 -0.380831 -0.000000 0.000000 0.000000 0.000000 0.000000 0.000000 0.000000 
2.201302 17.424192 2.940858 -43.618923 -28.956471 49.186360 18.146368 -0.703964 -9.645741 2.967766 -2.996489 -4.714470 -7.769210 -2.969641 -0.183048 21.442512 -14.644035 -5.180008 -2.082869 -0.182483 0.483834 0.000000 0.000000 0.000000 2.703049 -2.036517 -0.790236 -82.778781 -11.451373 -1.432578 -0.984391 -44.575224 -0.068366 18.213860 -6.413929 -1.082074 -0.150238 0.279961 -0.000000 0.000000 0.000000 0.000000 0.000000 0.000000 0.000000 16.395032 -12.532131 0.006582 35.442940 9.306256 -19.560793 0.029504 87.041050 -0.044120 -11.751464 9.414432 -1.027749 0.198766 -0.388098 -0.000000 0.000000 0.000000 0.000000 0.000000 0.000000 0.000000 
2.185390 17.419087 2.946634 -43.770501 -29.319812 49.188965 18.020125 -0.715125 -9.521328 2.931090 -2.979018 -4.684968 -7.786921 -2.949269 -0.165087 21.433439 -14.580466 -5.227543 -2.079272 -0.181720 0.472620 0.000000 0.000000 0.000000 2.590727 -1.730027 -0.736633 -82.427303 -11.292300 -1.719653 -0.994449 -44.413323 -0.068040 18.431656 -6.486122 -1.106384 -0.150020 0.276229 -0.000000 0.000000 0.000000 0.000000 0.000000 0.000000 0.000000 16.348647 -12.409867 -0.061831 35.539249 9.566342 -19.671977 0.010158 87.663227 -0.046216 -11.906368 9.473750 -1.048354 0.199649 -0.395171 -0.000000 0.000000 0.000000 0.000000 0.000000 0.000000 0.000000 
2.169924 17.415987 2.952523 -43.864701 -29.638978 49.188446 17.877631 -0.726947 -9.428348 2.891435 -2.964477 -4.660595 -7.806855 -2.932335 -0.142961 21.444371 -14.547164 -5.285686 -2.073116 -0.180657 0.458275 0.000000 0.000000 0.000000 2.492211 -1.450211 -0.682372 -82.090847 -11.183490 -2.037341 -1.005083 -44.149129 -0.067660 18.666561 -6.545214 -1.129696 -0.149702 0.271993 -0.000000 0.000000 0.000000 0.000000 0.000000 0.000000 0.000000 16.310144 -12.320957 -0.128745 35.676770 9.763835 -19.780751 -0.009040 88.335197 -0.048257 -12.063478 9.521647 -1.068155 0.201034 -0.401972 -0.000000 0.000000 0.000000 0.000000 0.000000 0.000000 0.000000 
2.154817 17.415087 2.958613 -43.897167 -29.909663 49.180022 17.720010 -0.740988 -9.366399 2.849005 -2.953990 -4.641729 -7.828546 -2.919880 -0.117510 21.474217 -14.546677 -5.352674 -2.064407 -0.179316 0.441326 0.000000 0.000000 0.000000 2.414400 -1.208633 -0.628580 -81.771293 -11.107242 -2.378753 -1.016349 -43.802433 -0.067199 18.902466 -6.581738 -1.149515 -0.149204 0.267311 -0.000000 0.000000 0.000000 0.000000 0.000000 0.000000 0.000000 16.277918 -12.269030 -0.193207 35.855584 9.899680 -19.884480 -0.028149 89.053680 -0.050208 -12.218197 9.557842 -1.086554 0.202920 -0.408482 -0.000000 0.000000 0.000000 0.000000 0.000000 0.000000 0.000000 
2.140080 17.416285 2.964910 -43.871798 -30.131829 49.157690 17.550544 -0.759001 -9.328961 2.804433 -2.948694 -4.627409 -7.851756 -2.912951 -0.090089 21.520177 -14.579645 -5.426565 -2.053210 -0.177722 0.422337 0.000000 0.000000 0.000000 2.362176 -1.012806 -0.576089 -81.467370 -11.045745 -2.733713 -1.028272 -43.398159 -0.066642 19.121935 -6.588560 -1.163236 -0.148468 0.262311 -0.000000 0.000000 0.000000 0.000000 0.000000 0.000000 0.000000 16.248837 -12.255146 -0.254683 36.075725 9.979728 -19.979806 -0.047284 89.814764 -0.052046 -12.365585 9.583881 -1.103349 0.205251 -0.414750 -0.000000 0.000000 0.000000 0.000000 0.000000 0.000000 0.000000 
